# xmcd CD database file
#
# Track frame offsets:
#	150
#	13963
#	28757
#	53608
#	67563
#	80746
#	90317
#	104679
#	119847
#	131037
#
# Disc length: 1995 seconds
#
# Revision: 0
# Processed by: cddbd v1.5.2PL0 Copyright (c) Steve Scherf et al.
# Submitted via: CDex 1.51
#
DISCID=8407c90a
DTITLE=Revisits - Feather and Down
DYEAR=1900
DGENRE=Jazz
TTITLE0=Big Yellow Taxi
TTITLE1=Take on me
TTITLE2=They Don't Know
TTITLE3=Perfect
TTITLE4=Eternal flame
TTITLE5=Long daddy green
TTITLE6=Never gonna give you up
TTITLE7=Sleeping satellite
TTITLE8=Nothing compares 2 U
TTITLE9=Too much love will kill you
EXTD=
EXTT0=
EXTT1=
EXTT2=
EXTT3=
EXTT4=
EXTT5=
EXTT6=
EXTT7=
EXTT8=
EXTT9=
PLAYORDER=
